<?xml version="1.0" encoding="UTF-8"?>
<svg version="1.1" xmlns="http://www.w3.org/2000/svg" width="200" height="200">
<path d="M0 0 C66 0 132 0 200 0 C200 66 200 132 200 200 C134 200 68 200 0 200 C0 134 0 68 0 0 Z " fill="#000000" transform="translate(0,0)"/>
<path d="M0 0 C6.45604783 4.55721023 12.13527589 9.72554149 17.89453125 15.109375 C20.88506242 17.90473466 23.94309372 20.61111482 27.0390625 23.2890625 C29.4049591 25.35333085 31.73320335 27.45703966 34.0625 29.5625 C37.98932963 33.10696445 41.96518552 36.57917903 46 40 C45.42118732 43.54822446 44.17307641 45.18422803 41.62109375 47.671875 C40.94755859 48.33574219 40.27402344 48.99960938 39.58007812 49.68359375 C38.87302734 50.36550781 38.16597656 51.04742187 37.4375 51.75 C36.37112305 52.79607422 36.37112305 52.79607422 35.28320312 53.86328125 C33.52869286 55.5824658 31.76756648 57.29425872 30 59 C32.83527296 62.80047227 35.83326395 65.64507044 39.5625 68.5625 C42.87934704 71.1592717 45.639519 73.49504336 48 77 C46.76600937 78.36877116 45.51219377 79.71969166 44.25 81.0625 C43.55390625 81.81660156 42.8578125 82.57070312 42.140625 83.34765625 C40 85 40 85 38.11328125 85.08984375 C34.90652592 83.43608268 32.49918293 80.99290017 29.9375 78.5 C24.86989907 73.67275103 19.68523599 69.22079737 14.14453125 64.9375 C12 63 12 63 10 59 C15.28 53.72 20.56 48.44 26 43 C24.03813952 39.07627904 22.60543614 37.5028801 19.375 34.6875 C18.48039062 33.90246094 17.58578125 33.11742187 16.6640625 32.30859375 C15.78492187 31.54675781 14.90578125 30.78492187 14 30 C13.26523438 29.35160156 12.53046875 28.70320313 11.7734375 28.03515625 C8.84759999 25.45386717 6.05379623 23.03553692 2.7890625 20.87890625 C0.83412965 19.25408268 0.09494333 18.41248246 -0.48046875 15.91259766 C-0.590278 13.47798417 -0.52473433 11.11972309 -0.375 8.6875 C-0.34792969 7.85154297 -0.32085937 7.01558594 -0.29296875 6.15429688 C-0.22259563 4.10174753 -0.11498322 2.05053409 0 0 Z " fill="#EEEEEE" transform="translate(87,24)"/>
<path d="M0 0 C4.39309313 1.58003686 6.82418312 3.55197024 10 7 C8.64556914 10.05777443 7.15295264 12.04421157 4.70703125 14.3125 C4.07732422 14.91320312 3.44761719 15.51390625 2.79882812 16.1328125 C1.46837518 17.38346443 0.13236097 18.62822504 -1.20898438 19.8671875 C-1.83482422 20.46789062 -2.46066406 21.06859375 -3.10546875 21.6875 C-3.68449951 22.22761719 -4.26353027 22.76773438 -4.86010742 23.32421875 C-6.22336322 24.94978805 -6.22336322 24.94978805 -5.82421875 27.07055664 C-4.54778712 30.05860142 -2.35126324 31.46062228 0.1875 33.4375 C1.6725 34.60925781 1.6725 34.60925781 3.1875 35.8046875 C4.115625 36.52914062 5.04375 37.25359375 6 38 C7.23433109 39.01458275 8.46487094 40.03384574 9.6875 41.0625 C10.450625 41.701875 11.21375 42.34125 12 43 C11.04882866 44.1725131 10.08882991 45.33787015 9.125 46.5 C8.59132812 47.1496875 8.05765625 47.799375 7.5078125 48.46875 C7.01023438 48.9740625 6.51265625 49.479375 6 50 C5.34 50 4.68 50 4 50 C4 50.66 4 51.32 4 52 C-0.1123483 51.46568096 -2.12656137 49.30189725 -5.0625 46.5 C-9.74876833 42.115261 -14.57135459 38.01373463 -19.58984375 34.0078125 C-21.86458234 32.11281147 -23.94382399 30.12773666 -26 28 C-24.39626852 23.99482604 -21.57886014 21.3228902 -18.5546875 18.359375 C-17.75987473 17.56880707 -17.75987473 17.56880707 -16.94900513 16.76226807 C-15.26232175 15.08674325 -13.56880436 13.41832278 -11.875 11.75 C-10.72740612 10.61244149 -9.58026539 9.47442564 -8.43359375 8.3359375 C-5.62761863 5.55196535 -2.81549536 2.7743424 0 0 Z " fill="#EFEFEF" transform="translate(86,58)"/>
<path d="M0 0 C2.97 0 5.94 0 9 0 C9.33 1.32 9.66 2.64 10 4 C10.66 3.01 11.32 2.02 12 1 C14.8203125 0.70703125 14.8203125 0.70703125 18.125 0.8125 C19.76855469 0.85310547 19.76855469 0.85310547 21.4453125 0.89453125 C22.28835937 0.92933594 23.13140625 0.96414062 24 1 C24 2.65 24 4.3 24 6 C24.99 6 25.98 6 27 6 C27.144375 5.360625 27.28875 4.72125 27.4375 4.0625 C28 2 28 2 29 1 C31.5 0.875 31.5 0.875 34 1 C34.495 1.495 34.495 1.495 35 2 C35.33 1.34 35.66 0.68 36 0 C42.93 0.33 49.86 0.66 57 1 C57 3.31 57 5.62 57 8 C55.68 8 54.36 8 53 8 C52.67 8.33 52.34 8.66 52 9 C52.66 9.66 53.32 10.32 54 11 C53.625 13.625 53.625 13.625 53 16 C50.54159395 16.02691685 48.08348118 16.04679802 45.625 16.0625 C44.92632812 16.07087891 44.22765625 16.07925781 43.5078125 16.08789062 C38.2265625 16.11328125 38.2265625 16.11328125 36 15 C36 14.01 36 13.02 36 12 C35.01 12 34.02 12 33 12 C32.67 12.99 32.34 13.98 32 15 C30.68 14.67 29.36 14.34 28 14 C27.67 14.66 27.34 15.32 27 16 C26.4225 15.814375 25.845 15.62875 25.25 15.4375 C23.06356893 14.84479234 23.06356893 14.84479234 21.1875 15.46875 C18.64101921 16.08718105 16.36719808 16.09693682 13.75 16.0625 C12.85796875 16.05347656 11.9659375 16.04445312 11.046875 16.03515625 C10.37140625 16.02355469 9.6959375 16.01195312 9 16 C8.375 14.125 8.375 14.125 8 12 C8.66 11.34 9.32 10.68 10 10 C8.68 8.68 7.36 7.36 6 6 C6 6.66 6 7.32 6 8 C4.02 8 2.04 8 0 8 C0 5.36 0 2.72 0 0 Z " fill="#323232" transform="translate(61,151)"/>
<path d="M0 0 C1.29608947 0.93137592 2.58671632 1.8703566 3.875 2.8125 C4.59429687 3.33457031 5.31359375 3.85664062 6.0546875 4.39453125 C8 6 8 6 10 9 C5.89143009 13.13320844 1.77964754 17.26318302 -2.33520508 21.39013672 C-3.73584335 22.79581735 -5.13558465 24.20239231 -6.53442383 25.60986328 C-8.54015164 27.62766096 -10.5490372 29.64226631 -12.55859375 31.65625 C-13.18777206 32.2905896 -13.81695038 32.9249292 -14.4651947 33.57849121 C-15.95793603 35.07142676 -17.47632715 36.53864643 -19 38 C-19.33 38 -19.66 38 -20 38 C-21.33046549 31.87985874 -22.10220469 26.02270807 -20 20 C-14.60481435 12.26153223 -7.16998915 6.05444562 0 0 Z " fill="#F1F1F1" transform="translate(107,110)"/>
<path d="M0 0 C2.97 0 5.94 0 9 0 C9.33 1.32 9.66 2.64 10 4 C10.66 3.01 11.32 2.02 12 1 C14.1640625 0.70703125 14.1640625 0.70703125 16.625 0.8125 C17.44226563 0.83957031 18.25953125 0.86664063 19.1015625 0.89453125 C20.04128906 0.94673828 20.04128906 0.94673828 21 1 C19.68 1.33 18.36 1.66 17 2 C17 2.66 17 3.32 17 4 C17.99 4.33 18.98 4.66 20 5 C19.01 5 18.02 5 17 5 C17 5.66 17 6.32 17 7 C18.32 7 19.64 7 21 7 C21 7.66 21 8.32 21 9 C20.67 9.33 20.34 9.66 20 10 C20.68707031 10 21.37414062 10 22.08203125 10 C33 10 33 10 34.875 10.5625 C37.49619235 11.10215725 39.42680586 10.64329853 42 10 C42.66 11.32 43.32 12.64 44 14 C44.66 12.68 45.32 11.36 46 10 C46.66 10 47.32 10 48 10 C48.495 12.97 48.495 12.97 49 16 C47.20841511 16.02696365 45.41671527 16.04637917 43.625 16.0625 C42.62726563 16.07410156 41.62953125 16.08570313 40.6015625 16.09765625 C38 16 38 16 36 15 C36 14.01 36 13.02 36 12 C35.01 12 34.02 12 33 12 C32.67 12.99 32.34 13.98 32 15 C30.68 14.67 29.36 14.34 28 14 C27.67 14.66 27.34 15.32 27 16 C26.4225 15.814375 25.845 15.62875 25.25 15.4375 C23.06356893 14.84479234 23.06356893 14.84479234 21.1875 15.46875 C18.64101921 16.08718105 16.36719808 16.09693682 13.75 16.0625 C12.85796875 16.05347656 11.9659375 16.04445312 11.046875 16.03515625 C10.37140625 16.02355469 9.6959375 16.01195312 9 16 C8.375 14.125 8.375 14.125 8 12 C8.66 11.34 9.32 10.68 10 10 C8.68 8.68 7.36 7.36 6 6 C6 6.66 6 7.32 6 8 C4.02 8 2.04 8 0 8 C0 5.36 0 2.72 0 0 Z " fill="#454545" transform="translate(61,151)"/>
<path d="M0 0 C1.65 0 3.3 0 5 0 C3.68 0.33 2.36 0.66 1 1 C1.52268466 3.76276177 2.10869587 6.3260876 3 9 C2.01 10.485 2.01 10.485 1 12 C0.401875 11.835 -0.19625 11.67 -0.8125 11.5 C-3.11344336 10.8885876 -3.11344336 10.8885876 -6 11 C-9.66666667 11 -13.33333333 11 -17 11 C-17.33 10.34 -17.66 9.68 -18 9 C-17.01 9 -16.02 9 -15 9 C-15 8.34 -15 7.68 -15 7 C-16.32 7 -17.64 7 -19 7 C-19 5.35 -19 3.7 -19 2 C-15.535 1.505 -15.535 1.505 -12 1 C-12 2.65 -12 4.3 -12 6 C-11.01 6 -10.02 6 -9 6 C-8.855625 5.360625 -8.71125 4.72125 -8.5625 4.0625 C-8 2 -8 2 -7 1 C-4.5 0.875 -4.5 0.875 -2 1 C-1.67 1.33 -1.34 1.66 -1 2 C-0.67 1.34 -0.34 0.68 0 0 Z " fill="#313131" transform="translate(97,151)"/>
<path d="M0 0 C1.65 0 3.3 0 5 0 C5.12375 0.639375 5.2475 1.27875 5.375 1.9375 C5.58125 2.618125 5.7875 3.29875 6 4 C6.66 4.33 7.32 4.66 8 5 C8.33 3.35 8.66 1.7 9 0 C9.66 0 10.32 0 11 0 C11 0.99 11 1.98 11 3 C11.99 3 12.98 3 14 3 C14 2.01 14 1.02 14 0 C14.66 0 15.32 0 16 0 C16 2.31 16 4.62 16 7 C15.34 7 14.68 7 14 7 C14 6.01 14 5.02 14 4 C13.01 4 12.02 4 11 4 C10.67 7.63 10.34 11.26 10 15 C5.33333333 15 0.66666667 15 -4 15 C-4 13.02 -4 11.04 -4 9 C-2.35 8.67 -0.7 8.34 1 8 C1 7.01 1 6.02 1 5 C1.66 5.33 2.32 5.66 3 6 C3 5.34 3 4.68 3 4 C2.01 4 1.02 4 0 4 C0 2.68 0 1.36 0 0 Z " fill="#202020" transform="translate(120,152)"/>
<path d="M0 0 C0.87527344 0.00902344 1.75054687 0.01804688 2.65234375 0.02734375 C3.44769531 0.03894531 4.24304688 0.05054688 5.0625 0.0625 C6.0525 0.0625 7.0425 0.0625 8.0625 0.0625 C8.68125 0.248125 9.3 0.43375 9.9375 0.625 C12.55869235 1.16465725 14.48930586 0.70579853 17.0625 0.0625 C17.7225 1.3825 18.3825 2.7025 19.0625 4.0625 C19.7225 2.7425 20.3825 1.4225 21.0625 0.0625 C21.7225 0.0625 22.3825 0.0625 23.0625 0.0625 C23.5575 3.0325 23.5575 3.0325 24.0625 6.0625 C22.27091511 6.08946365 20.47921527 6.10887917 18.6875 6.125 C17.68976563 6.13660156 16.69203125 6.14820313 15.6640625 6.16015625 C13.0625 6.0625 13.0625 6.0625 11.0625 5.0625 C11.0625 4.0725 11.0625 3.0825 11.0625 2.0625 C10.0725 2.0625 9.0825 2.0625 8.0625 2.0625 C7.7325 3.0525 7.4025 4.0425 7.0625 5.0625 C5.7425 4.7325 4.4225 4.4025 3.0625 4.0625 C2.7325 4.7225 2.4025 5.3825 2.0625 6.0625 C1.485 5.876875 0.9075 5.69125 0.3125 5.5 C-1.89496031 4.90338648 -1.89496031 4.90338648 -3.875 5.5625 C-6.4812064 6.19430761 -8.36423558 5.70581611 -10.9375 5.0625 C-10.9375 3.7425 -10.9375 2.4225 -10.9375 1.0625 C-10.2775 1.0625 -9.6175 1.0625 -8.9375 1.0625 C-8.9375 2.0525 -8.9375 3.0425 -8.9375 4.0625 C-8.2775 4.0625 -7.6175 4.0625 -6.9375 4.0625 C-6.9375 3.0725 -6.9375 2.0825 -6.9375 1.0625 C-4.45344043 -0.17952979 -2.76852337 -0.03658841 0 0 Z " fill="#C3C3C3" transform="translate(85.9375,160.9375)"/>
<path d="M0 0 C2.97 0 5.94 0 9 0 C9.33 1.32 9.66 2.64 10 4 C10.66 3.01 11.32 2.02 12 1 C12.66 1.33 13.32 1.66 14 2 C13.01 3.98 12.02 5.96 11 8 C8.525 7.01 8.525 7.01 6 6 C6 6.66 6 7.32 6 8 C4.02 8 2.04 8 0 8 C0 5.36 0 2.72 0 0 Z " fill="#353535" transform="translate(61,151)"/>
<path d="M0 0 C0.66 0 1.32 0 2 0 C2 1.65 2 3.3 2 5 C2.99 5 3.98 5 5 5 C5.144375 4.360625 5.28875 3.72125 5.4375 3.0625 C6 1 6 1 7 0 C9.5 -0.125 9.5 -0.125 12 0 C13 1 13 1 13.125 3.5 C13 6 13 6 12 7 C9.98035801 7.07244053 7.95832876 7.08377188 5.9375 7.0625 C4.83277344 7.05347656 3.72804688 7.04445312 2.58984375 7.03515625 C1.30787109 7.01775391 1.30787109 7.01775391 0 7 C0 4.69 0 2.38 0 0 Z " fill="#898989" transform="translate(83,152)"/>
<path d="M0 0 C0.91007812 0.00902344 1.82015625 0.01804688 2.7578125 0.02734375 C3.45648438 0.03894531 4.15515625 0.05054688 4.875 0.0625 C4.875 1.0525 4.875 2.0425 4.875 3.0625 C4.215 3.0625 3.555 3.0625 2.875 3.0625 C2.400625 3.5575 1.92625 4.0525 1.4375 4.5625 C-1.38226892 7.26947816 -6.33788615 6.0625 -10.125 6.0625 C-10.455 4.4125 -10.785 2.7625 -11.125 1.0625 C-10.465 1.0625 -9.805 1.0625 -9.125 1.0625 C-9.125 2.0525 -9.125 3.0425 -9.125 4.0625 C-8.465 4.0625 -7.805 4.0625 -7.125 4.0625 C-7.125 3.0725 -7.125 2.0825 -7.125 1.0625 C-4.60024538 -0.19987731 -2.81299534 -0.03606404 0 0 Z " fill="#929292" transform="translate(86.125,160.9375)"/>
<path d="M0 0 C0.66 0 1.32 0 2 0 C2 0.99 2 1.98 2 3 C2.99 3 3.98 3 5 3 C5 3.66 5 4.32 5 5 C4.01 5.495 4.01 5.495 3 6 C3.99 6.66 4.98 7.32 6 8 C0.25 9.125 0.25 9.125 -2 8 C-2 8.66 -2 9.32 -2 10 C-4 9 -4 9 -6 6 C-5.34 6 -4.68 6 -4 6 C-3.67 5.34 -3.34 4.68 -3 4 C-2.01 4.66 -1.02 5.32 0 6 C0 4.02 0 2.04 0 0 Z " fill="#141414" transform="translate(118,153)"/>
<path d="M0 0 C1.65 0 3.3 0 5 0 C3.68 0.33 2.36 0.66 1 1 C1.52268466 3.76276177 2.10869587 6.3260876 3 9 C2.01 10.485 2.01 10.485 1 12 C0.401875 11.835 -0.19625 11.67 -0.8125 11.5 C-3.11344336 10.8885876 -3.11344336 10.8885876 -6 11 C-6 10.01 -6 9.02 -6 8 C-4.68 7.67 -3.36 7.34 -2 7 C-1.34 4.69 -0.68 2.38 0 0 Z " fill="#343434" transform="translate(97,151)"/>
<path d="M0 0 C2.31 0 4.62 0 7 0 C7.33 1.65 7.66 3.3 8 5 C5.23735711 5.59732819 2.83967231 6 0 6 C0 4.02 0 2.04 0 0 Z " fill="#969696" transform="translate(116,161)"/>
<path d="M0 0 C2.375 -0.125 2.375 -0.125 5 0 C5.66 0.66 6.32 1.32 7 2 C6.46428571 5.53571429 6.46428571 5.53571429 5 7 C3.33382885 7.04063832 1.66611905 7.042721 0 7 C0 4.69 0 2.38 0 0 Z " fill="#E7E7E7" transform="translate(53,152)"/>
<path d="M0 0 C1.98 0 3.96 0 6 0 C6 2.31 6 4.62 6 7 C4.02 7 2.04 7 0 7 C0 4.69 0 2.38 0 0 Z " fill="#BCBCBC" transform="translate(146,152)"/>
<path d="M0 0 C1.98 0 3.96 0 6 0 C6 2.31 6 4.62 6 7 C4 7 2 7 0 7 C0 4.69 0 2.38 0 0 Z " fill="#A2A2A2" transform="translate(112,152)"/>
<path d="M0 0 C0.99 0 1.98 0 3 0 C3 1.65 3 3.3 3 5 C3.66 5 4.32 5 5 5 C5 3.35 5 1.7 5 0 C5.66 0 6.32 0 7 0 C7.04254356 1.99954746 7.04080783 4.00041636 7 6 C6 7 6 7 3.5 7.125 C1 7 1 7 0 6 C-0.04080783 4.00041636 -0.04254356 1.99954746 0 0 Z " fill="#B4B4B4" transform="translate(137,152)"/>
<path d="M0 0 C1.65 0 3.3 0 5 0 C5.12375 0.639375 5.2475 1.27875 5.375 1.9375 C5.684375 2.9584375 5.684375 2.9584375 6 4 C6.66 4.33 7.32 4.66 8 5 C8 5.66 8 6.32 8 7 C5.36 7 2.72 7 0 7 C0.33 6.34 0.66 5.68 1 5 C1.66 5.33 2.32 5.66 3 6 C3 5.34 3 4.68 3 4 C2.01 4 1.02 4 0 4 C0 2.68 0 1.36 0 0 Z " fill="#BFBFBF" transform="translate(120,152)"/>
<path d="M0 0 C0.66 0 1.32 0 2 0 C2 0.99 2 1.98 2 3 C2.99 3 3.98 3 5 3 C5 2.01 5 1.02 5 0 C5.66 0 6.32 0 7 0 C7 2.31 7 4.62 7 7 C6.34 7 5.68 7 5 7 C5 6.01 5 5.02 5 4 C4.01 4 3.02 4 2 4 C2 4.99 2 5.98 2 7 C1.34 7 0.68 7 0 7 C0 4.69 0 2.38 0 0 Z " fill="#E2E2E2" transform="translate(129,152)"/>
<path d="M0 0 C1.65 0 3.3 0 5 0 C5.33 1.32 5.66 2.64 6 4 C5.195625 4.12375 4.39125 4.2475 3.5625 4.375 C2.2940625 4.684375 2.2940625 4.684375 1 5 C0.67 5.66 0.34 6.32 0 7 C0 4.69 0 2.38 0 0 Z " fill="#BCBCBC" transform="translate(98,152)"/>
<path d="M0 0 C1.66611905 -0.042721 3.33382885 -0.04063832 5 0 C6 1 6 1 6.0625 3.5625 C6.041875 4.366875 6.02125 5.17125 6 6 C4.35 6.33 2.7 6.66 1 7 C1.99 6.67 2.98 6.34 4 6 C4 4.68 4 3.36 4 2 C2.68 2 1.36 2 0 2 C-0.33 2.99 -0.66 3.98 -1 5 C-0.67 3.35 -0.34 1.7 0 0 Z " fill="#D2D2D2" transform="translate(90,152)"/>
<path d="M0 0 C0.66 0 1.32 0 2 0 C2.33 0.99 2.66 1.98 3 3 C3.66 2.01 4.32 1.02 5 0 C5.66 0.33 6.32 0.66 7 1 C6.01 2.98 5.02 4.96 4 7 C3.01 6.67 2.02 6.34 1 6 C0.67 4.02 0.34 2.04 0 0 Z " fill="#CECECE" transform="translate(68,152)"/>
<path d="M0 0 C1.98 0 3.96 0 6 0 C4.68 0.33 3.36 0.66 2 1 C2 1.66 2 2.32 2 3 C2.99 3.33 3.98 3.66 5 4 C4.01 4 3.02 4 2 4 C2 4.66 2 5.32 2 6 C3.32 6.33 4.64 6.66 6 7 C4.02 7 2.04 7 0 7 C0 4.69 0 2.38 0 0 Z " fill="#E7E7E7" transform="translate(105,152)"/>
<path d="M0 0 C1.98 0 3.96 0 6 0 C4.68 0.33 3.36 0.66 2 1 C2 1.66 2 2.32 2 3 C2.99 3.33 3.98 3.66 5 4 C4.01 4 3.02 4 2 4 C2 4.66 2 5.32 2 6 C3.32 6.33 4.64 6.66 6 7 C4.02 7 2.04 7 0 7 C0 4.69 0 2.38 0 0 Z " fill="#E8E8E8" transform="translate(76,152)"/>
<path d="M0 0 C1.98 0 3.96 0 6 0 C4.68 0.33 3.36 0.66 2 1 C2 1.66 2 2.32 2 3 C2.99 3.33 3.98 3.66 5 4 C4.01 4 3.02 4 2 4 C2 4.66 2 5.32 2 6 C3.32 6.33 4.64 6.66 6 7 C4.02 7 2.04 7 0 7 C0 4.69 0 2.38 0 0 Z " fill="#E7E7E7" transform="translate(61,152)"/>
<path d="M0 0 C1.21236328 0.01353516 1.21236328 0.01353516 2.44921875 0.02734375 C3.37154297 0.04474609 3.37154297 0.04474609 4.3125 0.0625 C4.3125 0.7225 4.3125 1.3825 4.3125 2.0625 C2.68925914 2.28412329 1.063779 2.48939803 -0.5625 2.6875 C-1.91988281 2.86152344 -1.91988281 2.86152344 -3.3046875 3.0390625 C-4.09101562 3.04679688 -4.87734375 3.05453125 -5.6875 3.0625 C-6.3475 2.4025 -7.0075 1.7425 -7.6875 1.0625 C-4.80538698 0.10179566 -2.98899956 -0.04331883 0 0 Z " fill="#0B0B0B" transform="translate(86.6875,158.9375)"/>
<path d="M0 0 C0.99 0.66 1.98 1.32 3 2 C2.67 2.99 2.34 3.98 2 5 C1.34 5 0.68 5 0 5 C0 5.66 0 6.32 0 7 C-1.32 6.67 -2.64 6.34 -4 6 C-3.34 5.67 -2.68 5.34 -2 5 C-1.27840576 3.35636866 -0.60648579 1.68949614 0 0 Z " fill="#E0E0E0" transform="translate(90,103)"/>
<path d="M0 0 C0.66 0 1.32 0 2 0 C2.33 0.66 2.66 1.32 3 2 C3.66 1.34 4.32 0.68 5 0 C5 1.98 5 3.96 5 6 C3.33333333 6 1.66666667 6 0 6 C0 4.02 0 2.04 0 0 Z " fill="#BEBEBE" transform="translate(125,161)"/>
<path d="M0 0 C0.66 0 1.32 0 2 0 C2 0.99 2 1.98 2 3 C2.66 3 3.32 3 4 3 C4.33 2.01 4.66 1.02 5 0 C5.33 0.99 5.66 1.98 6 3 C5.67 3.66 5.34 4.32 5 5 C3.35 4.67 1.7 4.34 0 4 C0 2.68 0 1.36 0 0 Z " fill="#B0B0B0" transform="translate(75,162)"/>
<path d="M0 0 C0.66 0 1.32 0 2 0 C2 0.99 2 1.98 2 3 C2.99 3 3.98 3 5 3 C5 3.66 5 4.32 5 5 C3.1875 6.0625 3.1875 6.0625 1 7 C0.01 6.67 -0.98 6.34 -2 6 C-1.34 6 -0.68 6 0 6 C0 4.02 0 2.04 0 0 Z " fill="#333333" transform="translate(118,153)"/>
<path d="M0 0 C1.32 0 2.64 0 4 0 C4 0.99 4 1.98 4 3 C3.01 3.495 3.01 3.495 2 4 C2 4.66 2 5.32 2 6 C1.34 6 0.68 6 0 6 C-1.125 2.25 -1.125 2.25 0 0 Z " fill="#919191" transform="translate(99,161)"/>
<path d="M0 0 C0.99 0.33 1.98 0.66 3 1 C2.67 1.99 2.34 2.98 2 4 C2.66 4 3.32 4 4 4 C3.67 4.66 3.34 5.32 3 6 C2.01 6.33 1.02 6.66 0 7 C0 4.69 0 2.38 0 0 Z " fill="#E5E5E5" transform="translate(112,152)"/>
<path d="M0 0 C1.32 0.33 2.64 0.66 4 1 C3.67 2.32 3.34 3.64 3 5 C2.01 5 1.02 5 0 5 C0 3.35 0 1.7 0 0 Z " fill="#4A4A4A" transform="translate(54,153)"/>
<path d="M0 0 C0.99 0.99 1.98 1.98 3 3 C1.35 4.32 -0.3 5.64 -2 7 C-1.125 2.25 -1.125 2.25 0 0 Z " fill="#DFDFDF" transform="translate(132,98)"/>
</svg>
