<?xml version="1.0" encoding="UTF-8"?>
<svg version="1.1" xmlns="http://www.w3.org/2000/svg" width="200" height="200">
<path d="M0 0 C66 0 132 0 200 0 C200 66 200 132 200 200 C134 200 68 200 0 200 C0 134 0 68 0 0 Z " fill="#FDFDFD" transform="translate(0,0)"/>
<path d="M0 0 C2.97 0 5.94 0 9 0 C8.98839844 0.70084717 8.97679688 1.40169434 8.96484375 2.1237793 C8.93528847 5.3128468 8.9670292 8.49849134 9 11.6875 C8.98066406 12.79029297 8.96132812 13.89308594 8.94140625 15.02929688 C8.99906606 18.21019645 9.12878839 20.93689917 10 24 C11.96108817 25.83891259 13.80279411 26.85934104 16.21875 28.01635742 C18 29 18 29 18.78125 31.45703125 C18.64203125 32.62298828 18.64203125 32.62298828 18.5 33.8125 C18.4278125 34.60269531 18.355625 35.39289063 18.28125 36.20703125 C18.1884375 36.79871094 18.095625 37.39039063 18 38 C14.89656201 36.79310745 11.98806107 35.49403054 9 34 C9 38.95 9 43.9 9 49 C2.24931256 49 2.24931256 49 -0.65625 47.171875 C-1.28660156 46.78386719 -1.91695312 46.39585938 -2.56640625 45.99609375 C-3.52353516 45.37927734 -3.52353516 45.37927734 -4.5 44.75 C-5.13808594 44.35425781 -5.77617188 43.95851562 -6.43359375 43.55078125 C-7.69527521 42.76384292 -8.94991516 41.96548744 -10.19677734 41.15527344 C-11.91559821 40.05407383 -13.67988972 39.02482592 -15.4453125 38 C-18 36 -18 36 -18.5859375 33.640625 C-18.51632813 32.85171875 -18.44671875 32.0628125 -18.375 31.25 C-18.32085937 30.45078125 -18.26671875 29.6515625 -18.2109375 28.828125 C-18.10652344 27.92320313 -18.10652344 27.92320313 -18 27 C-16.31199445 27.91573538 -14.62462359 28.83264074 -12.9375 29.75 C-11.99777344 30.26046875 -11.05804688 30.7709375 -10.08984375 31.296875 C-6.70641568 33.16182397 -3.35434366 35.0832322 0 37 C0 24.79 0 12.58 0 0 Z " fill="#080808" transform="translate(114,51)"/>
<path d="M0 0 C7.88340538 0 10.93898563 1.57769125 17.4375 5.4375 C18.82098633 6.18290039 18.82098633 6.18290039 20.23242188 6.94335938 C22.82334804 8.46799764 24.93528022 9.81170597 27 12 C27.77502102 15.15421456 27.61349037 17.82829488 27 21 C25.47783765 20.25270098 23.95734737 19.50199602 22.4375 18.75 C21.59058594 18.33234375 20.74367188 17.9146875 19.87109375 17.484375 C16.52742294 15.75567444 13.26816454 13.86752259 10 12 C9.67 23.88 9.34 35.76 9 48 C6.03 48 3.06 48 0 48 C0.01160156 47.29915283 0.02320312 46.59830566 0.03515625 45.8762207 C0.06471153 42.6871532 0.0329708 39.50150866 0 36.3125 C0.01933594 35.20970703 0.03867188 34.10691406 0.05859375 32.97070312 C0.00093394 29.78980355 -0.12878839 27.06310083 -1 24 C-2.96108817 22.16108741 -4.80279411 21.14065896 -7.21875 19.98364258 C-9 19 -9 19 -9.78125 16.54296875 C-9.52083333 14.36197917 -9.26041667 12.18098958 -9 10 C-5.04 11.98 -5.04 11.98 -1 14 C-0.67 9.38 -0.34 4.76 0 0 Z " fill="#B423E6" transform="translate(77,52)"/>
<path d="M0 0 C4.62 0 9.24 0 14 0 C14 2 14 2 12 4.125 C11.34 4.74375 10.68 5.3625 10 6 C11.65 8.31 13.3 10.62 15 13 C12.625 13.1875 12.625 13.1875 10 13 C9.34 12.01 8.68 11.02 8 10 C8 10.99 8 11.98 8 13 C5.04142591 13.05379226 2.08382279 13.09357093 -0.875 13.125 C-2.13763672 13.15013672 -2.13763672 13.15013672 -3.42578125 13.17578125 C-4.23144531 13.18222656 -5.03710938 13.18867187 -5.8671875 13.1953125 C-6.61081543 13.20578613 -7.35444336 13.21625977 -8.12060547 13.22705078 C-10 13 -10 13 -12 11 C-12.54587156 4.99541284 -12.54587156 4.99541284 -10.9375 2.0625 C-7.98831309 0.44520395 -5.29132441 0.81369862 -2 1 C-2 1.99 -2 2.98 -2 4 C-1.34 4 -0.68 4 0 4 C0 2.68 0 1.36 0 0 Z " fill="#F8F3FD" transform="translate(155,108)"/>
<path d="M0 0 C0.33 0 0.66 0 1 0 C1 8.25 1 16.5 1 25 C-0.98 25 -2.96 25 -5 25 C-5 18.07 -5 11.14 -5 4 C-3.68 3.67 -2.36 3.34 -1 3 C-0.67 2.01 -0.34 1.02 0 0 Z " fill="#B421E7" transform="translate(84,73)"/>
<path d="M0 0 C2.875 0.875 2.875 0.875 4.875 2.875 C5.42521834 8.92740175 5.42521834 8.92740175 3.75 11.8125 C0.98519567 13.37922245 -1.00688517 13.26476435 -4.125 12.875 C-6 11.75 -6 11.75 -7.125 9.875 C-7.66900387 6.22240261 -7.56274093 4.5316114 -5.5 1.4375 C-3.125 -0.125 -3.125 -0.125 0 0 Z " fill="#101517" transform="translate(101.125,108.125)"/>
<path d="M0 0 C7 0 7 0 8.9375 1.5 C9.288125 1.995 9.63875 2.49 10 3 C7.36 2.34 4.72 1.68 2 1 C2 2.65 2 4.3 2 6 C2.5775 6.144375 3.155 6.28875 3.75 6.4375 C5.83333333 6.95833333 7.91666667 7.47916667 10 8 C9.67 8.66 9.34 9.32 9 10 C6.69 10 4.38 10 2 10 C2.33 11.65 2.66 13.3 3 15 C0.36 15.99 -2.28 16.98 -5 18 C-3.68 18 -2.36 18 -1 18 C-0.67 19.65 -0.34 21.3 0 23 C-3.40312738 21.94124926 -6.01353231 20.99097846 -9 19 C-9.41137202 15.96133201 -9.13193156 13.07840297 -9 10 C-5.04 11.98 -5.04 11.98 -1 14 C-0.67 9.38 -0.34 4.76 0 0 Z " fill="#A830D5" transform="translate(77,52)"/>
<path d="M0 0 C1.65 0 3.3 0 5 0 C6.8125 2.5 6.8125 2.5 8 5 C8.33 3.68 8.66 2.36 9 1 C8.34 0.67 7.68 0.34 7 0 C8.98 0 10.96 0 13 0 C12.67 3.96 12.34 7.92 12 12 C7 11 7 11 5.1875 8.4375 C4.795625 7.633125 4.40375 6.82875 4 6 C3.67 7.65 3.34 9.3 3 11 C3.66 11.33 4.32 11.66 5 12 C3.02 12 1.04 12 -1 12 C-0.34 11.67 0.32 11.34 1 11 C0.67 7.37 0.34 3.74 0 0 Z " fill="#26212E" transform="translate(78,109)"/>
<path d="M0 0 C1.98 0 3.96 0 6 0 C5.67 1.65 5.34 3.3 5 5 C6.32 5 7.64 5 9 5 C8.67 3.35 8.34 1.7 8 0 C9.65 0 11.3 0 13 0 C12.67 3.63 12.34 7.26 12 11 C12.66 11.33 13.32 11.66 14 12 C12.02 12 10.04 12 8 12 C8.33 10.35 8.66 8.7 9 7 C7.68 7 6.36 7 5 7 C5.33 8.65 5.66 10.3 6 12 C4.02 12 2.04 12 0 12 C0 8.04 0 4.08 0 0 Z " fill="#17181F" transform="translate(60,109)"/>
<path d="M0 0 C2.31 0 4.62 0 7 0 C6.01 0.495 6.01 0.495 5 1 C5 2.32 5 3.64 5 5 C6.65 5 8.3 5 10 5 C10 3.68 10 2.36 10 1 C9.34 0.67 8.68 0.34 8 0 C9.98 0 11.96 0 14 0 C13.67 3.63 13.34 7.26 13 11 C13.66 11.33 14.32 11.66 15 12 C12.69 12 10.38 12 8 12 C8.66 11.67 9.32 11.34 10 11 C10 9.68 10 8.36 10 7 C8.35 7 6.7 7 5 7 C5 8.32 5 9.64 5 11 C5.66 11.33 6.32 11.66 7 12 C4.69 12 2.38 12 0 12 C0.66 11.67 1.32 11.34 2 11 C2 7.7 2 4.4 2 1 C1.34 0.67 0.68 0.34 0 0 Z " fill="#9C3CC9" transform="translate(109,109)"/>
<path d="M0 0 C0.33 0 0.66 0 1 0 C1 11.88 1 23.76 1 36 C-1.97 36 -4.94 36 -8 36 C-8 28.08 -8 20.16 -8 12 C-7.34 12 -6.68 12 -6 12 C-6 19.26 -6 26.52 -6 34 C-4.02 34 -2.04 34 0 34 C0 22.78 0 11.56 0 0 Z " fill="#A53AC9" transform="translate(85,64)"/>
<path d="M0 0 C1.98 0 3.96 0 6 0 C6 0.99 6 1.98 6 3 C6.33 2.01 6.66 1.02 7 0 C8.65 0 10.3 0 12 0 C10.68 1.65 9.36 3.3 8 5 C10.475 8.465 10.475 8.465 13 12 C10.625 12.1875 10.625 12.1875 8 12 C7.34 11.01 6.68 10.02 6 9 C6 9.99 6 10.98 6 12 C4.02 12 2.04 12 0 12 C0 8.04 0 4.08 0 0 Z " fill="#A83DD3" transform="translate(157,109)"/>
<path d="M0 0 C3.3 0 6.6 0 10 0 C10 0.99 10 1.98 10 3 C8.35 2.67 6.7 2.34 5 2 C5 2.99 5 3.98 5 5 C6.32 5 7.64 5 9 5 C9 5.66 9 6.32 9 7 C7.68 7 6.36 7 5 7 C5 7.99 5 8.98 5 10 C5.99 10 6.98 10 8 10 C8 9.34 8 8.68 8 8 C8.66 8 9.32 8 10 8 C10 9.32 10 10.64 10 12 C6.7 12 3.4 12 0 12 C0 8.04 0 4.08 0 0 Z " fill="#262830" transform="translate(32,109)"/>
<path d="M0 0 C1.32 0 2.64 0 4 0 C5.65 3.96 7.3 7.92 9 12 C7.02 12 5.04 12 3 12 C3.33 11.01 3.66 10.02 4 9 C2.68 9 1.36 9 0 9 C0.33 9.99 0.66 10.98 1 12 C-0.98 12 -2.96 12 -5 12 C-4.34 11.67 -3.68 11.34 -3 11 C-2.08719862 8.42562419 -2.08719862 8.42562419 -1.375 5.4375 C-1.11460937 4.42558594 -0.85421875 3.41367188 -0.5859375 2.37109375 C-0.39257812 1.58863281 -0.19921875 0.80617188 0 0 Z " fill="#A44CD0" transform="translate(131,109)"/>
<path d="M0 0 C1.670625 0.061875 1.670625 0.061875 3.375 0.125 C3.375 1.445 3.375 2.765 3.375 4.125 C1.375 4.125 1.375 4.125 -0.25 2.625 C-0.70375 2.13 -1.1575 1.635 -1.625 1.125 C-1.625 2.115 -1.625 3.105 -1.625 4.125 C-0.820625 4.3725 -0.01625 4.62 0.8125 4.875 C3.375 6.125 3.375 6.125 4.3125 8.125 C4.333125 8.785 4.35375 9.445 4.375 10.125 C2.375 12.125 2.375 12.125 -1.25 12.25 C-2.36375 12.20875 -3.4775 12.1675 -4.625 12.125 C-4.955 10.805 -5.285 9.485 -5.625 8.125 C-2.625 8.125 -2.625 8.125 -0.9375 9.625 C-0.504375 10.12 -0.07125 10.615 0.375 11.125 C0.375 10.135 0.375 9.145 0.375 8.125 C-0.429375 7.8775 -1.23375 7.63 -2.0625 7.375 C-4.625 6.125 -4.625 6.125 -5.5625 4.125 C-5.583125 3.465 -5.60375 2.805 -5.625 2.125 C-3.625 0.125 -3.625 0.125 0 0 Z " fill="#AC38D5" transform="translate(178.625,108.875)"/>
<path d="M0 0 C3.96 0 7.92 0 12 0 C12 1.32 12 2.64 12 4 C11.01 4 10.02 4 9 4 C9 6.64 9 9.28 9 12 C6.69 12 4.38 12 2 12 C2.66 11.67 3.32 11.34 4 11 C4 7.7 4 4.4 4 1 C3.34 1 2.68 1 2 1 C2 1.99 2 2.98 2 4 C1.34 4 0.68 4 0 4 C0 2.68 0 1.36 0 0 Z " fill="#070D13" transform="translate(17,109)"/>
<path d="M0 0 C0.33 1.65 0.66 3.3 1 5 C-0.98 4.34 -2.96 3.68 -5 3 C-4.67 5.31 -4.34 7.62 -4 10 C-2.35 10 -0.7 10 1 10 C1 10.66 1 11.32 1 12 C-5.40096618 13.32850242 -5.40096618 13.32850242 -7.9375 11.9375 C-9.50056349 9.08720774 -9.45702733 7.19919131 -9 4 C-6.36160394 0.28670185 -4.49495424 -0.49943936 0 0 Z " fill="#0A0C10" transform="translate(55,108)"/>
<path d="M0 0 C0 1.32 0 2.64 0 4 C-0.99 4 -1.98 4 -3 4 C-3 3.34 -3 2.68 -3 2 C-3.99 2.33 -4.98 2.66 -6 3 C-5.67 4.98 -5.34 6.96 -5 9 C-3.35 9 -1.7 9 0 9 C0 9.66 0 10.32 0 11 C-2.76250036 12.38125018 -4.94731099 12.19079306 -8 12 C-10 10 -10 10 -10.3125 6.5625 C-10 3 -10 3 -8.9375 1.0625 C-5.98831309 -0.55479605 -3.29132441 -0.18630138 0 0 Z " fill="#9F43CB" transform="translate(153,109)"/>
<path d="M0 0 C5.75 0.875 5.75 0.875 8 2 C8 2.66 8 3.32 8 4 C8.99 4 9.98 4 11 4 C11.33 5.65 11.66 7.3 12 9 C10.68 9 9.36 9 8 9 C8 8.34 8 7.68 8 7 C7.236875 6.855625 6.47375 6.71125 5.6875 6.5625 C3 6 3 6 0 5 C0 3.35 0 1.7 0 0 Z " fill="#B421E6" transform="translate(79,53)"/>
<path d="M0 0 C3.80909895 0.32417863 5.78372163 0.85581442 9 3 C9.1875 5.625 9.1875 5.625 9 8 C8.01 8 7.02 8 6 8 C6 7.34 6 6.68 6 6 C4.68 6 3.36 6 2 6 C2 5.34 2 4.68 2 4 C0.68 3.34 -0.64 2.68 -2 2 C-1.34 1.34 -0.68 0.68 0 0 Z " fill="#B322E6" transform="translate(94,62)"/>
<path d="M0 0 C4.61069302 1.58492573 9.54754702 3.47194586 13 7 C13.7177373 10.26543078 13.40384694 12.61778192 13 16 C10.36 14.68 7.72 13.36 5 12 C6.32 11.67 7.64 11.34 9 11 C9 11.66 9 12.32 9 13 C9.99 13 10.98 13 12 13 C11.88658466 10.59122743 11.88658466 10.59122743 11 8 C7.83196811 5.5359752 4.94637474 4.56376782 1 4 C0.67 2.68 0.34 1.36 0 0 Z " fill="#A73BCE" transform="translate(91,57)"/>
<path d="M0 0 C1.32 0.33 2.64 0.66 4 1 C4.33 2.65 4.66 4.3 5 6 C6.65 6 8.3 6 10 6 C8.68 6.99 7.36 7.98 6 9 C7.32 9.66 8.64 10.32 10 11 C9.67 11.66 9.34 12.32 9 13 C5.62496331 11.8141763 3.35277269 10.72426311 1 8 C1.66 7.34 2.32 6.68 3 6 C2.67 5.34 2.34 4.68 2 4 C2.33 3.34 2.66 2.68 3 2 C2.01 2 1.02 2 0 2 C0 1.34 0 0.68 0 0 Z " fill="#AC2DDA" transform="translate(87,55)"/>
<path d="M0 0 C1.65 0 3.3 0 5 0 C5.66 1.32 6.32 2.64 7 4 C5.68 4.33 4.36 4.66 3 5 C3 6.98 3 8.96 3 11 C3.66 11.33 4.32 11.66 5 12 C3.02 12 1.04 12 -1 12 C-0.34 11.67 0.32 11.34 1 11 C0.67 7.37 0.34 3.74 0 0 Z " fill="#0E0D15" transform="translate(78,109)"/>
<path d="M0 0 C1.65 0 3.3 0 5 0 C4.67 3.63 4.34 7.26 4 11 C4.66 11.33 5.32 11.66 6 12 C4.02 12 2.04 12 0 12 C0 8.04 0 4.08 0 0 Z " fill="#03040B" transform="translate(68,109)"/>
<path d="M0 0 C1.32 0 2.64 0 4 0 C4 3.3 4 6.6 4 10 C3.67 9.01 3.34 8.02 3 7 C0.525 8.485 0.525 8.485 -2 10 C-1.85950482 8.52031676 -1.71245174 7.04125484 -1.5625 5.5625 C-1.48128906 4.73878906 -1.40007812 3.91507812 -1.31640625 3.06640625 C-1 1 -1 1 0 0 Z " fill="#F4E5F6" transform="translate(107,110)"/>
<path d="M0 0 C2.97 0 5.94 0 9 0 C8.67 1.65 8.34 3.3 8 5 C7.01 4.67 6.02 4.34 5 4 C4.67 4.66 4.34 5.32 4 6 C2.68 5.67 1.36 5.34 0 5 C0 3.35 0 1.7 0 0 Z " fill="#ABABAB" transform="translate(123,132)"/>
<path d="M0 0 C1.65 0 3.3 0 5 0 C3.68 1.65 2.36 3.3 1 5 C3.475 8.465 3.475 8.465 6 12 C4.35 12 2.7 12 1 12 C-1.22923777 7.67265609 -0.92470553 4.71599818 0 0 Z " fill="#9E41C5" transform="translate(164,109)"/>
<path d="M0 0 C0.33 0 0.66 0 1 0 C1.1953125 6.0546875 1.1953125 6.0546875 1 8 C0.34 8.66 -0.32 9.32 -1 10 C-1.33 9.34 -1.66 8.68 -2 8 C-2.66 8.66 -3.32 9.32 -4 10 C-7.125 10.125 -7.125 10.125 -10 10 C-6.25 8 -6.25 8 -4 8 C-3.71125 7.05125 -3.4225 6.1025 -3.125 5.125 C-2 2 -2 2 0 0 Z " fill="#E6EDEF" transform="translate(60,112)"/>
<path d="M0 0 C4.62 0 9.24 0 14 0 C13.67 0.66 13.34 1.32 13 2 C11.68 2 10.36 2 9 2 C9 3.32 9 4.64 9 6 C7.35 6 5.7 6 4 6 C4 4.68 4 3.36 4 2 C2.68 1.34 1.36 0.68 0 0 Z " fill="#F2C3FC" transform="translate(110,108)"/>
<path d="M0 0 C0.99 0.33 1.98 0.66 3 1 C3 3.64 3 6.28 3 9 C1.68 8.67 0.36 8.34 -1 8 C-1.04241723 5.66705225 -1.04092937 3.33297433 -1 1 C-0.67 0.67 -0.34 0.34 0 0 Z " fill="#EEF0F4" transform="translate(99,110)"/>
<path d="M0 0 C1.98 0 3.96 0 6 0 C6 1.32 6 2.64 6 4 C5.01 4 4.02 4 3 4 C2.67 6.31 2.34 8.62 2 11 C-0.67927341 6.98108988 -0.15601248 4.75838077 0 0 Z " fill="#3C333F" transform="translate(23,109)"/>
<path d="M0 0 C0.99 0.33 1.98 0.66 3 1 C2.67 3.31 2.34 5.62 2 8 C-0.31 8.33 -2.62 8.66 -5 9 C-3.68 8.67 -2.36 8.34 -1 8 C-0.67 5.36 -0.34 2.72 0 0 Z " fill="#06080C" transform="translate(103,112)"/>
<path d="M0 0 C4.29 0 8.58 0 13 0 C11.02 0.99 11.02 0.99 9 2 C9 3.65 9 5.3 9 7 C7.62437146 5.71034824 6.29233607 4.37310707 5 3 C5 2.34 5 1.68 5 1 C3.35 1 1.7 1 0 1 C0 0.67 0 0.34 0 0 Z " fill="#E2DBE7" transform="translate(78,108)"/>
<path d="M0 0 C0.99 0 1.98 0 3 0 C3 0.66 3 1.32 3 2 C3.99 2.33 4.98 2.66 6 3 C4.68 3.33 3.36 3.66 2 4 C2 4.66 2 5.32 2 6 C2.99 6.66 3.98 7.32 5 8 C3.35 7.67 1.7 7.34 0 7 C-0.38133299 5.0085944 -0.71325582 3.00720923 -1 1 C-0.67 0.67 -0.34 0.34 0 0 Z " fill="#F7D7FC" transform="translate(147,111)"/>
<path d="M0 0 C0.33 0.99 0.66 1.98 1 3 C1.99 3 2.98 3 4 3 C4 2.34 4 1.68 4 1 C4.66 1 5.32 1 6 1 C6 2.32 6 3.64 6 5 C2.7 5 -0.6 5 -4 5 C-3.67 4.34 -3.34 3.68 -3 3 C-2.34 3 -1.68 3 -1 3 C-0.67 2.01 -0.34 1.02 0 0 Z " fill="#0F1218" transform="translate(36,116)"/>
<path d="M0 0 C2.875 0.25 2.875 0.25 6 1 C7.375 3.0625 7.375 3.0625 8 5 C7.01 4.67 6.02 4.34 5 4 C5 5.98 5 7.96 5 10 C4.67 10 4.34 10 4 10 C3.67 7.69 3.34 5.38 3 3 C2.01 2.67 1.02 2.34 0 2 C0 1.34 0 0.68 0 0 Z " fill="#413F49" transform="translate(98,108)"/>
<path d="M0 0 C1.134375 0.020625 2.26875 0.04125 3.4375 0.0625 C3.4375 1.3825 3.4375 2.7025 3.4375 4.0625 C2.7775 4.0625 2.1175 4.0625 1.4375 4.0625 C1.1075 3.4025 0.7775 2.7425 0.4375 2.0625 C-0.8825 2.0625 -2.2025 2.0625 -3.5625 2.0625 C-3.2325 3.3825 -2.9025 4.7025 -2.5625 6.0625 C-3.5525 5.7325 -4.5425 5.4025 -5.5625 5.0625 C-4.43693182 0.07784091 -4.43693182 0.07784091 0 0 Z " fill="#9E49C7" transform="translate(178.5625,108.9375)"/>
<path d="M0 0 C0.99 0.33 1.98 0.66 3 1 C3.6875 3.0625 3.6875 3.0625 4 5 C2.68 5.33 1.36 5.66 0 6 C-0.38218767 4.34385343 -0.71395102 2.67542976 -1 1 C-0.67 0.67 -0.34 0.34 0 0 Z " fill="#A4A4A4" transform="translate(118,132)"/>
<path d="M0 0 C2.0625 0.4375 2.0625 0.4375 4 1 C4 2.65 4 4.3 4 6 C2.68 6 1.36 6 0 6 C-0.38218767 4.34385343 -0.71395102 2.67542976 -1 1 C-0.67 0.67 -0.34 0.34 0 0 Z " fill="#A1A1A1" transform="translate(77,132)"/>
<path d="M0 0 C2.31 0 4.62 0 7 0 C7 1.32 7 2.64 7 4 C6.01 4 5.02 4 4 4 C4 3.34 4 2.68 4 2 C2.68 2.33 1.36 2.66 0 3 C0 2.01 0 1.02 0 0 Z " fill="#9E4EC1" transform="translate(146,109)"/>
<path d="M0 0 C1.65 0 3.3 0 5 0 C5 1.32 5 2.64 5 4 C4.01 4.33 3.02 4.66 2 5 C1.34 4.67 0.68 4.34 0 4 C0 2.68 0 1.36 0 0 Z " fill="#F0C8FC" transform="translate(114,116)"/>
<path d="M0 0 C0.33 0 0.66 0 1 0 C1.33 1.98 1.66 3.96 2 6 C3.65 6 5.3 6 7 6 C7 6.66 7 7.32 7 8 C4.69 8.33 2.38 8.66 0 9 C0 6.03 0 3.06 0 0 Z " fill="#2E252F" transform="translate(49,112)"/>
<path d="M0 0 C0.99 0 1.98 0 3 0 C3.33 0.66 3.66 1.32 4 2 C5.65 2 7.3 2 9 2 C8.67 2.66 8.34 3.32 8 4 C5.69 4 3.38 4 1 4 C0.67 2.68 0.34 1.36 0 0 Z " fill="#994CBF" transform="translate(173,117)"/>
<path d="M0 0 C3.3 0 6.6 0 10 0 C10 0.99 10 1.98 10 3 C8.02 2.34 6.04 1.68 4 1 C3.67 1.99 3.34 2.98 3 4 C2.67 3.01 2.34 2.02 2 1 C1.34 0.67 0.68 0.34 0 0 Z " fill="#05050E" transform="translate(32,109)"/>
<path d="M0 0 C0.33 0 0.66 0 1 0 C1 2.31 1 4.62 1 7 C-0.98 6.01 -2.96 5.02 -5 4 C-5 3.01 -5 2.02 -5 1 C-4.01 1.33 -3.02 1.66 -2 2 C-2 2.66 -2 3.32 -2 4 C-1.34 4 -0.68 4 0 4 C0 2.68 0 1.36 0 0 Z " fill="#F3C6FC" transform="translate(182,109)"/>
<path d="M0 0 C3.96 0 7.92 0 12 0 C9.7060466 1.72046505 7.38585576 3.4094295 5 5 C5 4.01 5 3.02 5 2 C3.35 1.67 1.7 1.34 0 1 C0 0.67 0 0.34 0 0 Z " fill="#F8BFFD" transform="translate(157,108)"/>
<path d="M0 0 C1.32 0.33 2.64 0.66 4 1 C4 2.65 4 4.3 4 6 C2.68 5.67 1.36 5.34 0 5 C0 3.35 0 1.7 0 0 Z " fill="#868686" transform="translate(145,132)"/>
<path d="M0 0 C0.33 0 0.66 0 1 0 C1.1546875 1.423125 1.1546875 1.423125 1.3125 2.875 C1.68539295 6.29107501 1.68539295 6.29107501 5 8 C3.35 8.33 1.7 8.66 0 9 C-0.84454356 5.62182575 -1.10844919 3.32534757 0 0 Z " fill="#261F2C" transform="translate(97,112)"/>
<path d="M0 0 C1.32 0 2.64 0 4 0 C3.67 1.65 3.34 3.3 3 5 C2.01 4.67 1.02 4.34 0 4 C0 2.68 0 1.36 0 0 Z " fill="#E2E1E8" transform="translate(65,116)"/>
<path d="M0 0 C0.99 0.33 1.98 0.66 3 1 C3 2.32 3 3.64 3 5 C1.68 5 0.36 5 -1 5 C-0.67 3.35 -0.34 1.7 0 0 Z " fill="#E9EAEE" transform="translate(66,109)"/>
<path d="M0 0 C1.65 0 3.3 0 5 0 C5.33 1.65 5.66 3.3 6 5 C4.02 4.34 2.04 3.68 0 3 C0 2.01 0 1.02 0 0 Z " fill="#44424A" transform="translate(50,108)"/>
</svg>
